<svg width="116" height="18" viewBox="0 0 116 18" fill="none" xmlns="http://www.w3.org/2000/svg">
<path d="M99.9971 2.1222C96.2481 4.31229 95.215 8.54345 97.4915 12.533C99.7679 16.5226 103.939 17.6091 107.778 15.3662C109.885 14.1352 111.352 12.4763 112.02 10.3243L108.264 10.385C108.282 10.383 108.166 10.6594 108.264 10.385C108.331 10.2725 108.223 10.4623 108.264 10.385C107.786 11.193 107.116 11.8679 106.315 12.349C104.725 13.2779 103.003 13.2201 101.596 11.6003L110.477 6.41203C110.303 6.00431 110.105 5.60734 109.885 5.22318C107.618 1.2804 103.604 0.0151707 99.9971 2.1222ZM101.651 5.08044C103.099 4.2346 104.591 4.58389 105.826 6.02461L100.28 9.26449C99.682 7.52104 100.061 6.00935 101.651 5.08044Z" fill="#008CFF"/>
<path d="M18.7669 1.14761C16.8676 1.14761 14.9682 1.79831 13.8466 3.65955C12.8744 2.10074 11.1546 1.14761 9.06087 1.14761C7.41582 1.14761 5.83051 1.70753 4.79865 3.2661V1.54107H1V16.2039H4.90336V8.16895C4.90336 5.95993 6.29416 4.85501 7.9692 4.85501C9.74869 4.85501 10.7957 6.0202 10.7957 8.13869V16.2042H14.6991V8.16895C14.6991 5.95993 16.0899 4.85501 17.7649 4.85501C19.5297 4.85501 20.5914 6.0202 20.5914 8.13869V16.2042H24.4799V6.86796C24.4797 3.46283 22.1767 1.14761 18.7669 1.14761ZM34.9036 1.14761C30.402 1.14761 27.082 4.44646 27.082 8.86508C27.082 13.2837 30.402 16.5825 34.9036 16.5825C39.42 16.5825 42.7548 13.2837 42.7548 8.86508C42.7548 4.44646 39.42 1.14761 34.9036 1.14761ZM34.9036 4.82475C37.102 4.82475 38.762 6.48926 38.762 8.86508C38.762 11.2409 37.102 12.9054 34.9036 12.9054C32.7052 12.9054 31.0601 11.2409 31.0601 8.86508C31.0601 6.48926 32.7052 4.82475 34.9036 4.82475ZM53.5231 1.14761C51.8781 1.14761 50.2928 1.70753 49.2609 3.2661V1.54107H45.4619V16.2039H49.3652V8.16895C49.3652 5.95993 50.756 4.85501 52.431 4.85501C54.2105 4.85501 55.2575 6.0202 55.2575 8.13869V16.2042H59.1609V6.86796C59.1609 3.46283 56.813 1.14761 53.5231 1.14761ZM66.5641 1.54107H62.6604V16.2039H66.5637L66.5641 1.54107ZM87.9498 1.14761C86.0504 1.14761 84.1511 1.79831 83.0294 3.65955C82.0573 2.10074 80.3375 1.14761 78.2438 1.14761C76.5987 1.14761 75.0134 1.70753 73.9815 3.2661V1.54107H70.1829V16.2039H74.0862V8.16895C74.0862 5.95993 75.477 4.85501 77.152 4.85501C78.9315 4.85501 79.9785 6.0202 79.9785 8.13869V16.2042H83.8816V8.16895C83.8816 5.95993 85.2724 4.85501 86.9475 4.85501C88.7122 4.85501 89.774 6.0202 89.774 8.13869V16.2042H93.6625V6.86796C93.6627 3.46283 91.3596 1.14761 87.9498 1.14761Z" fill="#008CFF"/>
<path d="M108.264 10.385L112.02 10.3243C111.352 12.4763 109.885 14.1352 107.778 15.3662C103.939 17.6091 99.7679 16.5226 97.4915 12.533C95.215 8.54345 96.2481 4.31229 99.9971 2.1222C103.604 0.0151707 107.618 1.2804 109.885 5.22318C110.105 5.60734 110.303 6.00431 110.477 6.41203L101.596 11.6003C103.003 13.2201 104.725 13.2779 106.315 12.349C107.116 11.8679 107.786 11.193 108.264 10.385ZM108.264 10.385C108.166 10.6594 108.282 10.383 108.264 10.385ZM108.264 10.385C108.223 10.4623 108.331 10.2725 108.264 10.385ZM101.651 5.08044C103.099 4.2346 104.591 4.58389 105.826 6.02461L100.28 9.26449C99.682 7.52104 100.061 6.00935 101.651 5.08044ZM18.7669 1.14761C16.8676 1.14761 14.9682 1.79831 13.8466 3.65955C12.8744 2.10074 11.1546 1.14761 9.06087 1.14761C7.41582 1.14761 5.83051 1.70753 4.79865 3.2661V1.54107H1V16.2039H4.90336V8.16895C4.90336 5.95993 6.29416 4.85501 7.9692 4.85501C9.74869 4.85501 10.7957 6.0202 10.7957 8.13869V16.2042H14.6991V8.16895C14.6991 5.95993 16.0899 4.85501 17.7649 4.85501C19.5297 4.85501 20.5914 6.0202 20.5914 8.13869V16.2042H24.4799V6.86796C24.4797 3.46283 22.1767 1.14761 18.7669 1.14761ZM34.9036 1.14761C30.402 1.14761 27.082 4.44646 27.082 8.86508C27.082 13.2837 30.402 16.5825 34.9036 16.5825C39.42 16.5825 42.7548 13.2837 42.7548 8.86508C42.7548 4.44646 39.42 1.14761 34.9036 1.14761ZM34.9036 4.82475C37.102 4.82475 38.762 6.48926 38.762 8.86508C38.762 11.2409 37.102 12.9054 34.9036 12.9054C32.7052 12.9054 31.0601 11.2409 31.0601 8.86508C31.0601 6.48926 32.7052 4.82475 34.9036 4.82475ZM53.5231 1.14761C51.8781 1.14761 50.2928 1.70753 49.2609 3.2661V1.54107H45.4619V16.2039H49.3652V8.16895C49.3652 5.95993 50.756 4.85501 52.431 4.85501C54.2105 4.85501 55.2575 6.0202 55.2575 8.13869V16.2042H59.1609V6.86796C59.1609 3.46283 56.813 1.14761 53.5231 1.14761ZM66.5641 1.54107H62.6604V16.2039H66.5637L66.5641 1.54107ZM87.9498 1.14761C86.0504 1.14761 84.1511 1.79831 83.0295 3.65955C82.0573 2.10074 80.3375 1.14761 78.2438 1.14761C76.5987 1.14761 75.0134 1.70753 73.9815 3.2661V1.54107H70.1829V16.2039H74.0862V8.16895C74.0862 5.95993 75.477 4.85501 77.152 4.85501C78.9315 4.85501 79.9785 6.0202 79.9785 8.13869V16.2042H83.8816V8.16895C83.8816 5.95993 85.2724 4.85501 86.9475 4.85501C88.7122 4.85501 89.774 6.0202 89.774 8.13869V16.2042H93.6625V6.86796C93.6627 3.46283 91.3596 1.14761 87.9498 1.14761Z" stroke="#008CFF" stroke-width="1.365"/>
</svg>
