<svg width="343" height="84" viewBox="0 0 343 84" fill="none"
    xmlns="http://www.w3.org/2000/svg">
    <path d="M147.282 29.6055C143.395 29.6055 139.509 30.9213 137.214 34.6851C135.225 31.5333 131.706 29.6055 127.422 29.6055C124.056 29.6055 120.813 30.7377 118.701 33.8895V30.4011H110.929V60.0525H118.915V43.8039C118.915 39.3363 121.761 37.1025 125.188 37.1025C128.83 37.1025 130.972 39.4587 130.972 43.7427V60.0525H138.958V43.8039C138.958 39.3363 141.804 37.1025 145.231 37.1025C148.842 37.1025 151.015 39.4587 151.015 43.7427V60.0525H158.971V41.1723C158.971 34.2873 154.258 29.6055 147.282 29.6055ZM180.299 29.6055C171.088 29.6055 164.295 36.2763 164.295 45.2115C164.295 54.1467 171.088 60.8175 180.299 60.8175C189.54 60.8175 196.364 54.1467 196.364 45.2115C196.364 36.2763 189.54 29.6055 180.299 29.6055ZM180.299 37.0413C184.797 37.0413 188.194 40.4073 188.194 45.2115C188.194 50.0157 184.797 53.3817 180.299 53.3817C175.801 53.3817 172.435 50.0157 172.435 45.2115C172.435 40.4073 175.801 37.0413 180.299 37.0413ZM218.396 29.6055C215.03 29.6055 211.786 30.7377 209.675 33.8895V30.4011H201.903V60.0525H209.889V43.8039C209.889 39.3363 212.735 37.1025 216.162 37.1025C219.804 37.1025 221.946 39.4587 221.946 43.7427V60.0525H229.932V41.1723C229.932 34.2873 225.128 29.6055 218.396 29.6055ZM245.079 30.4011H237.093V60.0525H245.079V30.4011ZM288.837 29.6055C284.951 29.6055 281.065 30.9213 278.77 34.6851C276.781 31.5333 273.262 29.6055 268.978 29.6055C265.612 29.6055 262.368 30.7377 260.257 33.8895V30.4011H252.484V60.0525H260.471V43.8039C260.471 39.3363 263.317 37.1025 266.744 37.1025C270.385 37.1025 272.527 39.4587 272.527 43.7427V60.0525H280.514V43.8039C280.514 39.3363 283.36 37.1025 286.787 37.1025C290.398 37.1025 292.57 39.4587 292.57 43.7427V60.0525H300.526V41.1723C300.526 34.2873 295.814 29.6055 288.837 29.6055Z" fill="#388DFF" stroke="#388DFF" stroke-width="1.1475"/>
    <path d="M313.453 31.6128C305.802 36.0298 303.694 44.5627 308.34 52.6086C312.985 60.6544 321.494 62.8468 329.331 58.3224C333.631 55.8398 336.623 52.4941 337.987 48.1545L330.323 48.2766C330.123 48.8298 330.358 48.2727 330.323 48.2766C330.239 48.4323 330.457 48.0505 330.323 48.2766C329.345 49.906 327.979 51.267 326.345 52.2373C323.099 54.1115 319.586 53.994 316.715 50.7272L334.838 40.2639C334.483 39.4415 334.08 38.6408 333.63 37.8659C329.004 29.9155 320.812 27.3637 313.453 31.6128ZM316.827 37.5787C319.781 35.8729 322.826 36.5773 325.346 39.4832L314.03 46.0169C312.809 42.5009 313.582 39.4522 316.826 37.5789L316.827 37.5787Z" fill="#388DFF" stroke="#388DFF" stroke-width="1.1475"/>
    <path d="M63.4556 23.9496C63.8819 23.9496 64.2906 24.1201 64.592 24.4235C64.8934 24.727 65.0627 25.1386 65.0627 25.5677V57.4629C65.0627 57.6754 65.0212 57.8858 64.9404 58.0821C64.8596 58.2784 64.7413 58.4568 64.592 58.6071C64.4428 58.7573 64.2656 58.8765 64.0706 58.9578C63.8757 59.0391 63.6667 59.081 63.4556 59.081C63.2446 59.081 63.0356 59.0391 62.8406 58.9578C62.6456 58.8765 62.4685 58.7573 62.3192 58.6071C62.17 58.4568 62.0516 58.2784 61.9708 58.0821C61.8901 57.8858 61.8485 57.6754 61.8485 57.4629V25.5677C61.8485 25.1386 62.0178 24.727 62.3192 24.4235C62.6206 24.1201 63.0294 23.9496 63.4556 23.9496Z" fill="#388DFF"/>
    <path d="M58.176 17.4782C58.6022 17.4782 59.011 17.6487 59.3124 17.9521C59.6137 18.2556 59.7831 18.6672 59.7831 19.0963V50.7603C59.7831 50.9728 59.7415 51.1833 59.6607 51.3796C59.58 51.5759 59.4616 51.7543 59.3124 51.9045C59.1631 52.0548 58.986 52.174 58.791 52.2553C58.596 52.3366 58.387 52.3785 58.176 52.3785C57.9649 52.3785 57.7559 52.3366 57.5609 52.2553C57.366 52.174 57.1888 52.0548 57.0396 51.9045C56.8903 51.7543 56.7719 51.5759 56.6912 51.3796C56.6104 51.1833 56.5688 50.9728 56.5688 50.7603V19.0963C56.5688 18.6672 56.7382 18.2556 57.0396 17.9521C57.341 17.6487 57.7497 17.4782 58.176 17.4782Z" fill="#388DFF"/>
    <path d="M52.7811 14.0112C53.1769 14.0112 53.5564 14.1695 53.8362 14.4512C54.116 14.733 54.2732 15.1151 54.2732 15.5135V68.2104C54.2732 68.6089 54.116 68.991 53.8362 69.2727C53.5564 69.5545 53.1769 69.7127 52.7811 69.7127C52.3854 69.7127 52.0059 69.5545 51.7261 69.2727C51.4463 68.991 51.2891 68.6089 51.2891 68.2104V15.5135C51.2891 15.1151 51.4463 14.733 51.7261 14.4512C52.0059 14.1695 52.3854 14.0112 52.7811 14.0112Z" fill="#388DFF"/>
    <path d="M47.387 11.7C47.8132 11.7 48.222 11.8705 48.5234 12.1739C48.8248 12.4774 48.9941 12.889 48.9941 13.3181V69.2503C48.9941 69.4628 48.9525 69.6732 48.8717 69.8695C48.791 70.0658 48.6726 70.2442 48.5234 70.3944C48.3741 70.5447 48.197 70.6639 48.002 70.7452C47.807 70.8265 47.598 70.8684 47.387 70.8684C47.1759 70.8684 46.9669 70.8265 46.7719 70.7452C46.577 70.6639 46.3998 70.5447 46.2506 70.3944C46.1013 70.2442 45.9829 70.0658 45.9022 69.8695C45.8214 69.6732 45.7798 69.4628 45.7798 69.2503V13.3181C45.7798 12.889 45.9492 12.4774 46.2506 12.1739C46.552 11.8705 46.9607 11.7 47.387 11.7Z" fill="#388DFF"/>
    <path d="M42.1071 17.7093C42.5333 17.7093 42.9421 17.8798 43.2435 18.1833C43.5449 18.4867 43.7142 18.8983 43.7142 19.3274V64.6278C43.7142 64.8403 43.6726 65.0507 43.5919 65.247C43.5111 65.4434 43.3927 65.6217 43.2435 65.772C43.0943 65.9222 42.9171 66.0414 42.7221 66.1227C42.5271 66.2041 42.3182 66.2459 42.1071 66.2459C41.8961 66.2459 41.6871 66.2041 41.4921 66.1227C41.2971 66.0414 41.1199 65.9222 40.9707 65.772C40.8215 65.6217 40.7031 65.4434 40.6223 65.247C40.5416 65.0507 40.5 64.8403 40.5 64.6278V19.3274C40.5 18.8983 40.6693 18.4867 40.9707 18.1833C41.2721 17.8798 41.6809 17.7093 42.1071 17.7093Z" fill="#388DFF"/>
    <path d="M68.965 31.1145C69.3913 31.1145 69.8 31.285 70.1014 31.5885C70.4028 31.8919 70.5721 32.3035 70.5721 32.7326V64.3967C70.5721 64.6092 70.5306 64.8196 70.4498 65.0159C70.369 65.2122 70.2507 65.3906 70.1014 65.5409C69.9522 65.6911 69.775 65.8103 69.58 65.8916C69.3851 65.9729 69.1761 66.0148 68.965 66.0148C68.754 66.0148 68.545 65.9729 68.35 65.8916C68.155 65.8103 67.9779 65.6911 67.8286 65.5409C67.6794 65.3906 67.561 65.2122 67.4802 65.0159C67.3995 64.8196 67.3579 64.6092 67.3579 64.3967V32.7326C67.3579 32.3035 67.5272 31.8919 67.8286 31.5885C68.13 31.285 68.5388 31.1145 68.965 31.1145Z" fill="#388DFF"/>
    <path d="M74.2448 23.9496C74.671 23.9496 75.0798 24.1201 75.3812 24.4235C75.6826 24.727 75.8519 25.1386 75.8519 25.5677V57.4629C75.8519 57.6754 75.8104 57.8858 75.7296 58.0821C75.6488 58.2784 75.5304 58.4568 75.3812 58.6071C75.232 58.7573 75.0548 58.8765 74.8598 58.9578C74.6648 59.0391 74.4559 59.081 74.2448 59.081C74.0338 59.081 73.8248 59.0391 73.6298 58.9578C73.4348 58.8765 73.2576 58.7573 73.1084 58.6071C72.9592 58.4568 72.8408 58.2784 72.76 58.0821C72.6793 57.8858 72.6377 57.6754 72.6377 57.4629V25.5677C72.6377 25.1386 72.807 24.727 73.1084 24.4235C73.4098 24.1201 73.8186 23.9496 74.2448 23.9496Z" fill="#388DFF"/>
    <path d="M79.6391 17.4782C80.0348 17.4782 80.4143 17.6365 80.6941 17.9182C80.9739 18.2 81.1311 18.5821 81.1311 18.9805V50.8759C81.1311 51.2743 80.9739 51.6565 80.6941 51.9382C80.4143 52.2199 80.0348 52.3782 79.6391 52.3782C79.2433 52.3782 78.8638 52.2199 78.584 51.9382C78.3042 51.6565 78.147 51.2743 78.147 50.8759V18.9805C78.147 18.5821 78.3042 18.2 78.584 17.9182C78.8638 17.6365 79.2433 17.4782 79.6391 17.4782Z" fill="#388DFF"/>
    <path d="M85.0339 15.1668C85.4601 15.1668 85.8689 15.3373 86.1703 15.6408C86.4717 15.9442 86.641 16.3558 86.641 16.785V69.4819C86.641 69.6944 86.5994 69.9048 86.5187 70.1011C86.4379 70.2974 86.3195 70.4758 86.1703 70.6261C86.0211 70.7763 85.8439 70.8955 85.6489 70.9768C85.4539 71.0581 85.2449 71.1 85.0339 71.1C84.8228 71.1 84.6138 71.0581 84.4189 70.9768C84.2239 70.8955 84.0467 70.7763 83.8975 70.6261C83.7482 70.4758 83.6299 70.2974 83.5491 70.1011C83.4683 69.9048 83.4268 69.6944 83.4268 69.4819V16.785C83.4268 16.3558 83.5961 15.9442 83.8975 15.6408C84.1989 15.3373 84.6076 15.1668 85.0339 15.1668Z" fill="#388DFF"/>
    <path d="M90.3136 11.9311C90.7398 11.9311 91.1486 12.1016 91.45 12.4051C91.7514 12.7085 91.9207 13.1201 91.9207 13.5492V69.4814C91.9207 69.6939 91.8791 69.9043 91.7984 70.1006C91.7176 70.2969 91.5992 70.4753 91.45 70.6255C91.3008 70.7758 91.1236 70.895 90.9286 70.9763C90.7336 71.0576 90.5247 71.0995 90.3136 71.0995C90.1026 71.0995 89.8936 71.0576 89.6986 70.9763C89.5036 70.895 89.3264 70.7758 89.1772 70.6255C89.028 70.4753 88.9096 70.2969 88.8288 70.1006C88.7481 69.9043 88.7065 69.6939 88.7065 69.4814V13.5492C88.7065 13.1201 88.8758 12.7085 89.1772 12.4051C89.4786 12.1016 89.8874 11.9311 90.3136 11.9311Z" fill="#388DFF"/>
    <path d="M95.7079 17.4782C96.1036 17.4782 96.4831 17.6365 96.763 17.9182C97.0428 18.2 97.2 18.5821 97.2 18.9805V64.5123C97.2 64.9107 97.0428 65.2928 96.763 65.5745C96.4831 65.8563 96.1036 66.0146 95.7079 66.0146C95.3122 66.0146 94.9327 65.8563 94.6528 65.5745C94.373 65.2928 94.2158 64.9107 94.2158 64.5123V18.9805C94.2158 18.5821 94.373 18.2 94.6528 17.9182C94.9327 17.6365 95.3122 17.4782 95.7079 17.4782Z" fill="#388DFF"/>
</svg>
